<?xml version="1.0" encoding="UTF-8" standalone="no"?>
<!-- Created with Inkscape (http://www.inkscape.org/) -->

<svg
   xmlns:dc="http://purl.org/dc/elements/1.1/"
   xmlns:cc="http://creativecommons.org/ns#"
   xmlns:rdf="http://www.w3.org/1999/02/22-rdf-syntax-ns#"
   xmlns:svg="http://www.w3.org/2000/svg"
   xmlns="http://www.w3.org/2000/svg"
   xmlns:xlink="http://www.w3.org/1999/xlink"
   xmlns:sodipodi="http://sodipodi.sourceforge.net/DTD/sodipodi-0.dtd"
   xmlns:inkscape="http://www.inkscape.org/namespaces/inkscape"
   width="150"
   height="150"
   id="svg2"
   version="1.1"
   inkscape:version="0.48.2 r9819"
   sodipodi:docname="jt.svg">
  <defs
     id="defs4">
    <linearGradient
       id="linearGradient3762">
      <stop
         style="stop-color:#844390;stop-opacity:1;"
         offset="0"
         id="stop3764" />
      <stop
         style="stop-color:#280832;stop-opacity:1;"
         offset="1"
         id="stop3766" />
    </linearGradient>
    <linearGradient
       id="linearGradient3795">
      <stop
         style="stop-color:#d9cfe3;stop-opacity:1;"
         offset="0"
         id="stop3797" />
      <stop
         style="stop-color:#ffffff;stop-opacity:1;"
         offset="1"
         id="stop3799" />
    </linearGradient>
    <linearGradient
       id="linearGradient3787">
      <stop
         style="stop-color:#007580;stop-opacity:1;"
         offset="0"
         id="stop3789" />
      <stop
         style="stop-color:#ff5f07;stop-opacity:1;"
         offset="1"
         id="stop3791" />
    </linearGradient>
    <linearGradient
       inkscape:collect="always"
       xlink:href="#linearGradient3795"
       id="linearGradient3945"
       x1="88.112137"
       y1="932.20929"
       x2="87.283493"
       y2="1024.1884"
       gradientUnits="userSpaceOnUse" />
    <linearGradient
       inkscape:collect="always"
       xlink:href="#linearGradient3762"
       id="linearGradient3768"
       x1="66.934982"
       y1="925.64252"
       x2="67.140518"
       y2="1027.5653"
       gradientUnits="userSpaceOnUse" />
  </defs>
  <sodipodi:namedview
     id="base"
     pagecolor="#ffffff"
     bordercolor="#666666"
     borderopacity="1.0"
     inkscape:pageopacity="0.0"
     inkscape:pageshadow="2"
     inkscape:zoom="3.6203867"
     inkscape:cx="34.460294"
     inkscape:cy="79.641462"
     inkscape:document-units="px"
     inkscape:current-layer="layer2"
     showgrid="false"
     inkscape:window-width="1569"
     inkscape:window-height="919"
     inkscape:window-x="99"
     inkscape:window-y="38"
     inkscape:window-maximized="0" />
  <metadata
     id="metadata7">
    <rdf:RDF>
      <cc:Work
         rdf:about="">
        <dc:format>image/svg+xml</dc:format>
        <dc:type
           rdf:resource="http://purl.org/dc/dcmitype/StillImage" />
        <dc:title></dc:title>
      </cc:Work>
    </rdf:RDF>
  </metadata>
  <g
     inkscape:groupmode="layer"
     id="layer2"
     inkscape:label="레이어"
     style="display:inline"
     transform="translate(0,-902.36218)">
    <path
       style="fill:#cfcfda;fill-opacity:1;stroke:#49064a;stroke-opacity:1;stroke-width:3;stroke-miterlimit:4;stroke-dasharray:none"
       d="m 53.190548,929.13611 c 0,0 14.41409,4.58394 21.67969,4.6875 8.34976,0.11901 24.218755,-4.6875 24.218755,-4.6875 l 0,27.53906 -45.898445,0 z"
       id="rect3784"
       inkscape:connector-curvature="0"
       sodipodi:nodetypes="cscccc"
       inkscape:export-filename="/Users/Jeeeyul/Workspaces/personal/eclipse-themes/net.jeeeyul.eclipse.themes/icons/jtheme.png"
       inkscape:export-xdpi="14.270672"
       inkscape:export-ydpi="14.270672" />
    <path
       style="fill:url(#linearGradient3945);fill-opacity:1;stroke:url(#linearGradient3768);stroke-opacity:1;stroke-width:3;stroke-miterlimit:4;stroke-dasharray:none"
       d="m 43.280908,928.45397 c -9.2576,0 -17.38282,2.92969 -17.38282,2.92969 l 1.66017,30.1211 14.55077,-1.3672 0,68.20704 67.437502,0 -0.0977,-68.01172 13.1836,0.48828 3.22265,-29.04687 c -6.38874,-2.12148 -10.14169,-3.3206 -17.28515,-3.17969 l -16.458351,0 c 0,0 2.57678,20.70813 -17.425131,20.70813 -20.0019,0 -16.16244,-20.70813 -16.16244,-20.70813 -6.28537,-0.0317 -8.95846,-0.0323 -15.24315,-0.14063 z"
       id="rect2993"
       inkscape:connector-curvature="0"
       sodipodi:nodetypes="ccccccccccczcc"
       inkscape:export-filename="/Users/Jeeeyul/Workspaces/personal/eclipse-themes/net.jeeeyul.eclipse.themes/icons/jtheme.png"
       inkscape:export-xdpi="14.270672"
       inkscape:export-ydpi="14.270672" />
  </g>
  <g
     inkscape:groupmode="layer"
     id="layer3"
     inkscape:label="레이어#1"
     style="display:inline"
     transform="translate(0,-902.36218)">
    <path
       style="fill:#ff6600;fill-opacity:1;stroke:none;display:inline"
       d="m 72.246228,961.23879 c -13.64285,0 -24.71181,11.37461 -24.71181,25.41387 0,14.03924 11.06895,25.42984 24.71181,25.42984 0.33283,0 0.66197,-0.018 0.99158,-0.032 -11.52999,-2.1471 -19.89009,-12.70706 -19.89009,-25.19099 0,-13.7183 10.18035,-24.70228 23.39158,-25.20631 -1.45797,-0.2759 -2.95755,-0.41452 -4.49307,-0.41452 z"
       id="path3912"
       inkscape:connector-curvature="0"
       sodipodi:nodetypes="ssscscs"
       inkscape:export-filename="/Users/Jeeeyul/Workspaces/personal/eclipse-themes/net.jeeeyul.eclipse.themes/icons/jtheme.png"
       inkscape:export-xdpi="14.270672"
       inkscape:export-ydpi="14.270672" />
    <path
       style="fill:#220055;fill-opacity:1;stroke:none;display:inline"
       d="m 80.566138,962.04154 c -10.90013,0 -20.13122,7.0756 -23.41037,16.8722 l 46.836232,0 c -3.27914,-9.7966 -12.525731,-16.8722 -23.425862,-16.8722 z m -24.33997,20.54412 c -0.15114,0.88885 -0.25639,1.79283 -0.30987,2.71132 l 49.315162,0 c -0.0535,-0.91855 -0.17421,-1.82241 -0.32535,-2.71132 l -48.679952,0 z m -0.24789,6.39873 c 0.0586,0.65338 0.13946,1.29893 0.24789,1.93666 l 48.679952,0 c 0.10849,-0.63803 0.20482,-1.28296 0.26338,-1.93666 l -49.191222,0 z m 1.17749,5.60857 c 3.27915,9.79664 12.51024,16.85674 23.41037,16.85674 10.900141,0 20.146722,-7.0601 23.425862,-16.85674 l -46.836232,0 z"
       id="path3916"
       inkscape:connector-curvature="0"
       inkscape:export-filename="/Users/Jeeeyul/Workspaces/personal/eclipse-themes/net.jeeeyul.eclipse.themes/icons/jtheme.png"
       inkscape:export-xdpi="14.270672"
       inkscape:export-ydpi="14.270672" />
  </g>
</svg>
