<?xml version="1.0" encoding="UTF-8" standalone="no"?>
<!-- Created with Inkscape (http://www.inkscape.org/) -->

<svg
   xmlns:dc="http://purl.org/dc/elements/1.1/"
   xmlns:cc="http://creativecommons.org/ns#"
   xmlns:rdf="http://www.w3.org/1999/02/22-rdf-syntax-ns#"
   xmlns:svg="http://www.w3.org/2000/svg"
   xmlns="http://www.w3.org/2000/svg"
   xmlns:sodipodi="http://sodipodi.sourceforge.net/DTD/sodipodi-0.dtd"
   xmlns:inkscape="http://www.inkscape.org/namespaces/inkscape"
   width="150"
   height="150"
   id="svg2"
   version="1.1"
   inkscape:version="0.48.2 r9819"
   sodipodi:docname="jt.svg">
  <defs
     id="defs4">
    <linearGradient
       id="linearGradient3762">
      <stop
         style="stop-color:#5b2e63;stop-opacity:1;"
         offset="0"
         id="stop3764" />
      <stop
         style="stop-color:#280832;stop-opacity:1;"
         offset="1"
         id="stop3766" />
    </linearGradient>
    <linearGradient
       id="linearGradient3795">
      <stop
         style="stop-color:#2d1954;stop-opacity:1;"
         offset="0"
         id="stop3797" />
      <stop
         style="stop-color:#562171;stop-opacity:1;"
         offset="1"
         id="stop3799" />
    </linearGradient>
    <linearGradient
       id="linearGradient3787">
      <stop
         style="stop-color:#007580;stop-opacity:1;"
         offset="0"
         id="stop3789" />
      <stop
         style="stop-color:#ff5f07;stop-opacity:1;"
         offset="1"
         id="stop3791" />
    </linearGradient>
  </defs>
  <sodipodi:namedview
     id="base"
     pagecolor="#ffffff"
     bordercolor="#666666"
     borderopacity="1.0"
     inkscape:pageopacity="0.0"
     inkscape:pageshadow="2"
     inkscape:zoom="3.6203867"
     inkscape:cx="38.26996"
     inkscape:cy="75.720168"
     inkscape:document-units="px"
     inkscape:current-layer="layer3"
     showgrid="false"
     inkscape:window-width="1569"
     inkscape:window-height="919"
     inkscape:window-x="140"
     inkscape:window-y="102"
     inkscape:window-maximized="0" />
  <metadata
     id="metadata7">
    <rdf:RDF>
      <cc:Work
         rdf:about="">
        <dc:format>image/svg+xml</dc:format>
        <dc:type
           rdf:resource="http://purl.org/dc/dcmitype/StillImage" />
        <dc:title></dc:title>
      </cc:Work>
    </rdf:RDF>
  </metadata>
  <g
     inkscape:groupmode="layer"
     id="layer2"
     inkscape:label="레이어"
     style="display:inline"
     transform="translate(0,-902.36218)">
    <path
       style="fill:#dc80a5;fill-opacity:1;stroke:#4d1717;stroke-width:3;stroke-miterlimit:4;stroke-opacity:1;stroke-dasharray:none"
       d="m 43.280908,928.45397 c -9.2576,0 -18.211461,17.76432 -18.211461,17.76432 l 14.642209,16.11511 2.397372,-2.19584 0,68.20704 67.437502,0 -0.0977,-68.01172 3.23991,2.69799 12.61392,-17.08879 c -4.17904,-7.92196 -9.91367,-17.72477 -19.77108,-17.62369 -6.266633,0.10108 -13.420001,0.27621 -13.420001,0.27621 0,0 -8.842456,8.0165 -16.872704,14.35522 -7.477821,-6.36711 -16.714867,-14.35522 -16.714867,-14.35522 -6.28537,-0.0317 -8.95846,-0.0323 -15.24315,-0.14063 z"
       id="rect2993"
       inkscape:connector-curvature="0"
       sodipodi:nodetypes="ccccccccccccccc"
       inkscape:export-filename="/Users/Jeeeyul/Workspaces/personal/eclipse-themes/net.jeeeyul.eclipse.themes/icons/jtheme.png"
       inkscape:export-xdpi="14.270672"
       inkscape:export-ydpi="14.270672" />
  </g>
  <g
     inkscape:groupmode="layer"
     id="layer3"
     inkscape:label="레이어#1"
     style="display:inline"
     transform="translate(0,-902.36218)">
    <path
       style="fill:#ffffff;fill-opacity:1;stroke:none;display:inline"
       d="m 76.205636,960.01351 c -10.167512,0 -18.778163,6.60004 -21.836915,15.73819 l 43.688273,0 C 94.998252,966.61355 86.37315,960.01351 76.205636,960.01351 z m -22.704037,19.16332 c -0.14098,0.82912 -0.239156,1.67233 -0.28904,2.52907 l 46.000605,0 c -0.04991,-0.8568 -0.162504,-1.69992 -0.303497,-2.52907 l -45.408077,0 z m -0.231227,5.96864 c 0.05466,0.60947 0.130086,1.21164 0.231227,1.80651 l 45.408092,0 c 0.101178,-0.59515 0.191046,-1.19672 0.245664,-1.80651 l -45.884983,0 z m 1.098349,5.23162 c 3.058752,9.13818 11.669403,15.72381 21.836915,15.72381 10.167522,0 18.792616,-6.58563 21.851358,-15.72381 l -43.688273,0 z"
       id="path3916"
       inkscape:connector-curvature="0"
       inkscape:export-filename="/Users/Jeeeyul/Workspaces/personal/eclipse-themes/net.jeeeyul.eclipse.themes/icons/jtheme.png"
       inkscape:export-xdpi="14.270672"
       inkscape:export-ydpi="14.270672" />
  </g>
</svg>
